<svg width="24" height="24" viewBox="0 0 24 24" fill="none" xmlns="http://www.w3.org/2000/svg">
    <path d="M3 22H21" stroke="white" stroke-width="1.5" stroke-linecap="round" stroke-linejoin="round"/>
    <path d="M4 22V6C4 2.69067 4.78933 2 8.57143 2H15.4286C19.2107 2 20 2.69067 20 6V22" stroke="white" stroke-width="1.5" stroke-linecap="round" stroke-linejoin="round"/>
    <path d="M13.92 11.7591V9.85412C13.92 8.83228 13.0604 8.00391 12 8.00391C10.9396 8.00391 10.08 8.83228 10.08 9.85412V11.7591M15 14.0842C15 15.6951 13.6462 17.0039 12 17.0039C10.3538 17.0039 9 15.6951 9 14.0842C9 12.3739 10.3538 11.0738 12 11.0738C13.6462 11.0738 15 12.3739 15 14.0842Z" stroke="white" stroke-width="1.5" stroke-linecap="round"/>
</svg>
