<svg width="24" height="25" viewBox="0 0 24 25" fill="none" xmlns="http://www.w3.org/2000/svg">
    <path d="M12.5 2.5C15.7998 2.5 17.4497 2.5 18.4749 3.52513C19.5 4.55025 19.5 6.20017 19.5 9.5V15.5C19.5 18.7998 19.5 20.4497 18.4749 21.4749C17.4497 22.5 15.7998 22.5 12.5 22.5H11.5C8.20017 22.5 6.55025 22.5 5.52513 21.4749C4.5 20.4497 4.5 18.7998 4.5 15.5V9.5C4.5 6.20017 4.5 4.55025 5.52513 3.52513C6.55025 2.5 8.20017 2.5 11.5 2.5H12.5Z" stroke="white" stroke-width="1.5" stroke-linecap="round"/>
    <path d="M8 15.5H10" stroke="white" stroke-width="1.5" stroke-linecap="round"/>
    <path d="M8 18.5H10" stroke="white" stroke-width="1.5" stroke-linecap="round"/>
    <path d="M14 15.5H16" stroke="white" stroke-width="1.5" stroke-linecap="round"/>
    <path d="M14 18.5H16" stroke="white" stroke-width="1.5" stroke-linecap="round"/>
    <path d="M15 8.5C15 10.1568 13.6569 11.5 12 11.5C10.3431 11.5 9 10.1568 9 8.5C9 6.84315 10.3431 5.5 12 5.5C13.6569 5.5 15 6.84315 15 8.5Z" stroke="white" stroke-width="1.5"/>
</svg>
