<svg width="24" height="25" viewBox="0 0 24 25" fill="none" xmlns="http://www.w3.org/2000/svg">
    <path d="M10.4626 13.5L9.06858 15.3124C8.91919 15.5066 9.02626 15.7861 9.26987 15.8378L10.7301 16.1477C10.9899 16.2028 11.0889 16.5122 10.9073 16.7011L9.17773 18.5" stroke="white" stroke-width="1.5" stroke-linecap="round" stroke-linejoin="round"/>
    <path d="M4 10.5H16" stroke="white" stroke-width="1.5" stroke-linecap="round" stroke-linejoin="round"/>
    <path d="M4 21.5V9.5C4 6.67157 4 5.25736 4.87868 4.37868C5.75736 3.5 7.17157 3.5 10 3.5C12.8284 3.5 14.2426 3.5 15.1213 4.37868C16 5.25736 16 6.67157 16 9.5V21.5H4Z" stroke="white" stroke-width="1.5"/>
    <path d="M2 21.5H18" stroke="white" stroke-width="1.5" stroke-linecap="round" stroke-linejoin="round"/>
    <path d="M16 14.5H17.6667C17.9767 14.5 18.1317 14.5 18.2588 14.5341C18.6039 14.6265 18.8735 14.8961 18.9659 15.2412C19 15.3683 19 15.5233 19 15.8333V17C19 17.8284 19.6716 18.5 20.5 18.5C21.3284 18.5 22 17.8284 22 17V10.7111C22 10.11 22 9.80941 21.9142 9.52598C21.8284 9.24255 21.6616 8.99247 21.3282 8.4923L20.5547 7.33205C20.2082 6.81223 19.6247 6.5 19 6.5" stroke="white" stroke-width="1.5" stroke-linecap="round" stroke-linejoin="round"/>
</svg>
